<svg width="144" height="155" viewBox="0 0 144 155" fill="none" xmlns="http://www.w3.org/2000/svg">
<path fill-rule="evenodd" clip-rule="evenodd" d="M1 83V72C1 32.7878 32.7878 1 72 1C111.212 1 143 32.7878 143 72V83C143 122.212 111.212 154 72 154C32.7878 154 1 122.212 1 83ZM32 81.5V73.5C32 51.1325 50.1325 33 72.5 33C94.8675 33 113 51.1325 113 73.5V81.5C113 103.868 94.8675 122 72.5 122C50.1325 122 32 103.868 32 81.5Z" fill="#8E7171"/>
<path d="M0.5 72V83H1.5V72H0.5ZM72 0.5C32.5116 0.5 0.5 32.5116 0.5 72H1.5C1.5 33.0639 33.0639 1.5 72 1.5V0.5ZM143.5 72C143.5 32.5116 111.488 0.5 72 0.5V1.5C110.936 1.5 142.5 33.0639 142.5 72H143.5ZM143.5 83V72H142.5V83H143.5ZM72 154.5C111.488 154.5 143.5 122.488 143.5 83H142.5C142.5 121.936 110.936 153.5 72 153.5V154.5ZM0.5 83C0.5 122.488 32.5116 154.5 72 154.5V153.5C33.0639 153.5 1.5 121.936 1.5 83H0.5ZM31.5 73.5V81.5H32.5V73.5H31.5ZM72.5 32.5C49.8563 32.5 31.5 50.8563 31.5 73.5H32.5C32.5 51.4086 50.4086 33.5 72.5 33.5V32.5ZM113.5 73.5C113.5 50.8563 95.1437 32.5 72.5 32.5V33.5C94.5914 33.5 112.5 51.4086 112.5 73.5H113.5ZM113.5 81.5V73.5H112.5V81.5H113.5ZM72.5 122.5C95.1437 122.5 113.5 104.144 113.5 81.5H112.5C112.5 103.591 94.5914 121.5 72.5 121.5V122.5ZM31.5 81.5C31.5 104.144 49.8563 122.5 72.5 122.5V121.5C50.4086 121.5 32.5 103.591 32.5 81.5H31.5Z" fill="black"/>
</svg>
