<svg width="312" height="300" viewBox="0 0 312 300" fill="none" xmlns="http://www.w3.org/2000/svg">
<path fill-rule="evenodd" clip-rule="evenodd" d="M127 0.5H184.5V121H311V178.5H184.5V299H127V178.5H1V121H127V0.5Z" fill="black"/>
<path d="M184.5 0.5H185V0H184.5V0.5ZM127 0.5V0H126.5V0.5H127ZM184.5 121H184V121.5H184.5V121ZM311 121H311.5V120.5H311V121ZM311 178.5V179H311.5V178.5H311ZM184.5 178.5V178H184V178.5H184.5ZM184.5 299V299.5H185V299H184.5ZM127 299H126.5V299.5H127V299ZM127 178.5H127.5V178H127V178.5ZM1 178.5H0.5V179H1V178.5ZM1 121V120.5H0.5V121H1ZM127 121V121.5H127.5V121H127ZM184.5 0H127V1H184.5V0ZM185 121V0.5H184V121H185ZM311 120.5H184.5V121.5H311V120.5ZM311.5 178.5V121H310.5V178.5H311.5ZM184.5 179H311V178H184.5V179ZM185 299V178.5H184V299H185ZM127 299.5H184.5V298.5H127V299.5ZM126.5 178.5V299H127.5V178.5H126.5ZM1 179H127V178H1V179ZM0.5 121V178.5H1.5V121H0.5ZM127 120.5H1V121.5H127V120.5ZM126.5 0.5V121H127.5V0.5H126.5Z" fill="black"/>
</svg>
