<svg width="372" height="373" viewBox="0 0 372 373" fill="none" xmlns="http://www.w3.org/2000/svg">
<path fill-rule="evenodd" clip-rule="evenodd" d="M189.855 66.0877H105.071C77.4568 66.0877 55.071 88.4735 55.071 116.088V256.912C55.071 284.527 77.4567 306.912 105.071 306.912H250.217C277.831 306.912 300.217 284.527 300.217 256.912V188.61C300.217 174.587 311.585 163.219 325.609 163.219C339.632 163.219 351 174.587 351 188.61V322C351 349.614 328.614 372 301 372H51C23.3858 372 1 349.614 1 322V51C1 23.3858 23.3858 1 51 1H189.855C207.828 1 222.399 15.5704 222.399 33.5439C222.399 51.5173 207.828 66.0877 189.855 66.0877ZM224.027 214.425L156.168 145.113L263.351 40.1766L331.211 109.488L224.027 214.425ZM141.877 159.105L209.736 228.417L122.93 245.53L141.877 159.105ZM344.787 96.1963L276.928 26.8845L303.367 1.00004L371.226 70.3118L344.787 96.1963Z" fill="black"/>
<path d="M156.168 145.113L155.818 144.756L155.461 145.106L155.811 145.463L156.168 145.113ZM224.027 214.425L223.67 214.775L224.02 215.132L224.377 214.783L224.027 214.425ZM263.351 40.1766L263.709 39.8268L263.359 39.4695L263.002 39.8193L263.351 40.1766ZM331.211 109.488L331.56 109.846L331.918 109.496L331.568 109.139L331.211 109.488ZM209.736 228.417L209.833 228.907L210.741 228.728L210.094 228.067L209.736 228.417ZM141.877 159.105L142.234 158.755L141.587 158.094L141.389 158.998L141.877 159.105ZM122.93 245.53L122.441 245.423L122.278 246.168L123.026 246.02L122.93 245.53ZM276.928 26.8845L276.578 26.5272L276.221 26.877L276.571 27.2343L276.928 26.8845ZM344.787 96.1963L344.43 96.5461L344.78 96.9034L345.137 96.5536L344.787 96.1963ZM303.367 1.00004L303.724 0.650248L303.374 0.292971L303.017 0.64276L303.367 1.00004ZM371.226 70.3118L371.576 70.6691L371.933 70.3193L371.583 69.9621L371.226 70.3118ZM105.071 66.5877H189.855V65.5877H105.071V66.5877ZM55.571 116.088C55.571 88.7496 77.7329 66.5877 105.071 66.5877V65.5877C77.1806 65.5877 54.571 88.1973 54.571 116.088H55.571ZM55.571 256.912V116.088H54.571V256.912H55.571ZM105.071 306.412C77.7329 306.412 55.571 284.25 55.571 256.912H54.571C54.571 284.803 77.1806 307.412 105.071 307.412V306.412ZM250.217 306.412H105.071V307.412H250.217V306.412ZM299.717 256.912C299.717 284.25 277.555 306.412 250.217 306.412V307.412C278.107 307.412 300.717 284.803 300.717 256.912H299.717ZM299.717 188.61V256.912H300.717V188.61H299.717ZM325.609 162.719C311.309 162.719 299.717 174.311 299.717 188.61H300.717C300.717 174.863 311.861 163.719 325.609 163.719V162.719ZM351.5 188.61C351.5 174.311 339.908 162.719 325.609 162.719V163.719C339.356 163.719 350.5 174.863 350.5 188.61H351.5ZM351.5 322V188.61H350.5V322H351.5ZM301 372.5C328.89 372.5 351.5 349.89 351.5 322H350.5C350.5 349.338 328.338 371.5 301 371.5V372.5ZM51 372.5H301V371.5H51V372.5ZM0.5 322C0.5 349.89 23.1096 372.5 51 372.5V371.5C23.6619 371.5 1.5 349.338 1.5 322H0.5ZM0.5 51V322H1.5V51H0.5ZM51 0.5C23.1096 0.5 0.5 23.1096 0.5 51H1.5C1.5 23.6619 23.6619 1.5 51 1.5V0.5ZM189.855 0.5H51V1.5H189.855V0.5ZM222.899 33.5439C222.899 15.2942 208.105 0.5 189.855 0.5V1.5C207.552 1.5 221.899 15.8465 221.899 33.5439H222.899ZM189.855 66.5877C208.104 66.5877 222.899 51.7935 222.899 33.5439H221.899C221.899 51.2412 207.552 65.5877 189.855 65.5877V66.5877ZM155.811 145.463L223.67 214.775L224.385 214.076L156.526 144.764L155.811 145.463ZM263.002 39.8193L155.818 144.756L156.518 145.471L263.701 40.5338L263.002 39.8193ZM331.568 109.139L263.709 39.8268L262.994 40.5263L330.853 109.838L331.568 109.139ZM224.377 214.783L331.56 109.846L330.861 109.131L223.678 214.068L224.377 214.783ZM210.094 228.067L142.234 158.755L141.52 159.455L209.379 228.767L210.094 228.067ZM123.026 246.02L209.833 228.907L209.64 227.926L122.833 245.039L123.026 246.02ZM141.389 158.998L122.441 245.423L123.418 245.637L142.365 159.212L141.389 158.998ZM276.571 27.2343L344.43 96.5461L345.145 95.8465L277.285 26.5347L276.571 27.2343ZM303.017 0.64276L276.578 26.5272L277.278 27.2418L303.716 1.35732L303.017 0.64276ZM371.583 69.9621L303.724 0.650248L303.009 1.34983L370.868 70.6616L371.583 69.9621ZM345.137 96.5536L371.576 70.6691L370.876 69.9546L344.437 95.839L345.137 96.5536Z" fill="black"/>
</svg>
