<svg width="50" height="50" viewBox="0 0 250 247" fill="none" xmlns="http://www.w3.org/2000/svg">
<path fill-rule="evenodd" clip-rule="evenodd" d="M222.787 96.1963L154.928 26.8845L181.367 1.00004L249.226 70.3118L222.787 96.1963ZM34.1683 145.113L102.027 214.425L209.211 109.488L141.351 40.1766L34.1683 145.113ZM19.8771 159.105L87.7363 228.417L0.929645 245.53L19.8771 159.105Z" fill="black"/>
<path d="M154.928 26.8845L154.578 26.5272L154.221 26.877L154.571 27.2343L154.928 26.8845ZM222.787 96.1963L222.43 96.5461L222.78 96.9034L223.137 96.5536L222.787 96.1963ZM181.367 1.00004L181.724 0.650248L181.374 0.292971L181.017 0.64276L181.367 1.00004ZM249.226 70.3118L249.576 70.6691L249.933 70.3193L249.583 69.9621L249.226 70.3118ZM102.027 214.425L101.67 214.775L102.02 215.132L102.377 214.783L102.027 214.425ZM34.1683 145.113L33.8185 144.756L33.4612 145.106L33.811 145.463L34.1683 145.113ZM209.211 109.488L209.56 109.846L209.918 109.496L209.568 109.139L209.211 109.488ZM141.351 40.1766L141.709 39.8268L141.359 39.4695L141.002 39.8193L141.351 40.1766ZM87.7363 228.417L87.833 228.907L88.7411 228.728L88.0936 228.067L87.7363 228.417ZM19.8771 159.105L20.2344 158.755L19.5869 158.094L19.3887 158.998L19.8771 159.105ZM0.929645 245.53L0.441245 245.423L0.277873 246.168L1.02635 246.02L0.929645 245.53ZM154.571 27.2343L222.43 96.5461L223.145 95.8465L155.285 26.5347L154.571 27.2343ZM181.017 0.64276L154.578 26.5272L155.278 27.2418L181.716 1.35732L181.017 0.64276ZM249.583 69.9621L181.724 0.650248L181.009 1.34983L248.868 70.6616L249.583 69.9621ZM223.137 96.5536L249.576 70.6691L248.876 69.9546L222.437 95.839L223.137 96.5536ZM102.385 214.076L34.5255 144.764L33.811 145.463L101.67 214.775L102.385 214.076ZM208.861 109.131L101.678 214.068L102.377 214.783L209.56 109.846L208.861 109.131ZM140.994 40.5263L208.853 109.838L209.568 109.139L141.709 39.8268L140.994 40.5263ZM34.518 145.471L141.701 40.5338L141.002 39.8193L33.8185 144.756L34.518 145.471ZM88.0936 228.067L20.2344 158.755L19.5198 159.455L87.379 228.767L88.0936 228.067ZM1.02635 246.02L87.833 228.907L87.6396 227.926L0.832937 245.039L1.02635 246.02ZM19.3887 158.998L0.441245 245.423L1.41805 245.637L20.3655 159.212L19.3887 158.998Z" fill="black"/>
</svg>
