<svg width="145" height="145" viewBox="0 0 145 145" fill="none" xmlns="http://www.w3.org/2000/svg">
<path fill-rule="evenodd" clip-rule="evenodd" d="M112.766 0.750977L143.586 31.4485L103.009 72.1885L143.749 112.766L113.051 143.586L72.3115 103.009L31.7343 143.749L0.91369 113.051L41.4909 72.3115L0.750977 31.7344L31.4485 0.913742L72.1884 41.4909L112.766 0.750977Z" fill="#121422"/>
<path d="M143.586 31.4485L143.941 31.8014L144.293 31.4471L143.939 31.0943L143.586 31.4485ZM112.766 0.750977L113.118 0.396716L112.764 0.0438712L112.411 0.398131L112.766 0.750977ZM103.009 72.1885L102.655 71.8356L102.302 72.1899L102.656 72.5427L103.009 72.1885ZM143.749 112.766L144.103 113.119L144.456 112.764L144.102 112.411L143.749 112.766ZM113.051 143.586L112.699 143.941L113.053 144.293L113.406 143.939L113.051 143.586ZM72.3115 103.009L72.6643 102.655L72.3101 102.302L71.9572 102.656L72.3115 103.009ZM31.7343 143.749L31.3815 144.103L31.7357 144.456L32.0886 144.102L31.7343 143.749ZM0.91369 113.051L0.55943 112.699L0.206584 113.053L0.560844 113.406L0.91369 113.051ZM41.4909 72.3115L41.8451 72.6644L42.198 72.3101L41.8437 71.9573L41.4909 72.3115ZM0.750977 31.7344L0.396716 31.3815L0.0438712 31.7358L0.398131 32.0886L0.750977 31.7344ZM31.4485 0.913742L31.8014 0.559482L31.4471 0.206637L31.0943 0.560897L31.4485 0.913742ZM72.1884 41.4909L71.8356 41.8452L72.1898 42.198L72.5427 41.8438L72.1884 41.4909ZM143.939 31.0943L113.118 0.396716L112.413 1.10524L143.233 31.8028L143.939 31.0943ZM103.363 72.5413L143.941 31.8014L143.232 31.0957L102.655 71.8356L103.363 72.5413ZM144.102 112.411L103.362 71.8342L102.656 72.5427L143.396 113.12L144.102 112.411ZM113.406 143.939L144.103 113.119L143.395 112.413L112.697 143.233L113.406 143.939ZM71.9587 103.363L112.699 143.941L113.404 143.232L72.6643 102.655L71.9587 103.363ZM32.0886 144.102L72.6658 103.362L71.9572 102.656L31.3801 143.396L32.0886 144.102ZM0.560844 113.406L31.3815 144.103L32.0872 143.395L1.26653 112.697L0.560844 113.406ZM41.1366 71.9587L0.55943 112.699L1.26795 113.404L41.8451 72.6644L41.1366 71.9587ZM0.398131 32.0886L41.138 72.6658L41.8437 71.9573L1.10382 31.3801L0.398131 32.0886ZM31.0943 0.560897L0.396716 31.3815L1.10524 32.0872L31.8028 1.26659L31.0943 0.560897ZM72.5412 41.1367L31.8014 0.559482L31.0957 1.268L71.8356 41.8452L72.5412 41.1367ZM112.411 0.398131L71.8341 41.1381L72.5427 41.8438L113.12 1.10382L112.411 0.398131Z" fill="black"/>
</svg>
